<svg viewBox="0 0 24 24" fill="none" xmlns="http://www.w3.org/2000/svg">
<path d="M7.83333 9.08333V7.41666C7.83333 5.11548 9.69882 3.25 12 3.25C14.3012 3.25 16.1667 5.11548 16.1667 7.41666V9.08333H18.6667C19.1269 9.08333 19.5 9.45643 19.5 9.91666V19.9167C19.5 20.3769 19.1269 20.75 18.6667 20.75H5.33333C4.8731 20.75 4.5 20.3769 4.5 19.9167V9.91666C4.5 9.45643 4.8731 9.08333 5.33333 9.08333H7.83333ZM7.83333 10.75H6.16667V19.0834H17.8334V10.75H16.1667V12.4167H14.5V10.75H9.5V12.4167H7.83333V10.75ZM9.5 9.08333H14.5V7.41666C14.5 6.03596 13.3807 4.91666 12 4.91666C10.6193 4.91666 9.5 6.03596 9.5 7.41666V9.08333Z" fill="#392B30"/>
</svg>
