<svg  viewBox="0 0 24 24" fill="none" xmlns="http://www.w3.org/2000/svg">
<path d="M12.3342 5.27378C14.2917 3.51667 17.3167 3.575 19.2022 5.46447C21.0877 7.35393 21.1525 10.3642 19.3988 12.3275L12.3332 19.4042L5.26782 12.3275C3.51421 10.3642 3.57976 7.34918 5.46447 5.46447C7.35131 3.57763 10.371 3.51406 12.3342 5.27378ZM18.0225 6.64175C16.7732 5.38995 14.7563 5.33918 13.4475 6.51406L12.3349 7.5127L11.2217 6.51484C9.90915 5.33831 7.89588 5.39007 6.64297 6.64298C5.40152 7.88443 5.3392 9.87275 6.48327 11.186L12.3332 17.0453L18.1834 11.186C19.3279 9.87225 19.2658 7.88771 18.0225 6.64175Z" fill="#392B30"/>
</svg>
