<svg viewBox="0 0 24 24" fill="none" xmlns="http://www.w3.org/2000/svg">
<path d="M12.0059 3.80078C14.6793 3.80078 14.9959 3.8125 16.0473 3.85937C17.0244 3.90234 17.5521 4.06641 17.9038 4.20313C18.369 4.38281 18.7051 4.60156 19.053 4.94922C19.4047 5.30078 19.6197 5.63281 19.7995 6.09766C19.9363 6.44922 20.1004 6.98047 20.1434 7.95312C20.1903 9.00781 20.2021 9.32422 20.2021 11.9922C20.2021 14.6641 20.1903 14.9805 20.1434 16.0313C20.1004 17.0078 19.9363 17.5352 19.7995 17.8867C19.6197 18.3516 19.4008 18.6875 19.053 19.0352C18.7012 19.3867 18.369 19.6016 17.9038 19.7813C17.5521 19.918 17.0205 20.082 16.0473 20.125C14.992 20.1719 14.6754 20.1836 12.0059 20.1836C9.33242 20.1836 9.01583 20.1719 7.96443 20.125C6.9873 20.082 6.45964 19.918 6.10788 19.7813C5.64276 19.6016 5.30662 19.3828 4.95876 19.0352C4.607 18.6836 4.39203 18.3516 4.21223 17.8867C4.07543 17.5352 3.91128 17.0039 3.86828 16.0313C3.82138 14.9766 3.80965 14.6602 3.80965 11.9922C3.80965 9.32031 3.82138 9.00391 3.86828 7.95312C3.91128 6.97656 4.07543 6.44922 4.21223 6.09766C4.39203 5.63281 4.6109 5.29688 4.95876 4.94922C5.31053 4.59766 5.64276 4.38281 6.10788 4.20313C6.45964 4.06641 6.99121 3.90234 7.96443 3.85937C9.01583 3.8125 9.33242 3.80078 12.0059 3.80078ZM12.0059 2C9.28943 2 8.94938 2.01172 7.88235 2.05859C6.81923 2.10547 6.08833 2.27734 5.45515 2.52344C4.79461 2.78125 4.23568 3.12109 3.68067 3.67969C3.12175 4.23438 2.78171 4.79297 2.52374 5.44922C2.27751 6.08594 2.10553 6.8125 2.05863 7.875C2.01173 8.94531 2 9.28516 2 12C2 14.7148 2.01173 15.0547 2.05863 16.1211C2.10553 17.1836 2.27751 17.9141 2.52374 18.5469C2.78171 19.207 3.12175 19.7656 3.68067 20.3203C4.23568 20.875 4.79461 21.2188 5.45124 21.4727C6.08833 21.7188 6.81532 21.8906 7.87844 21.9375C8.94548 21.9844 9.28552 21.9961 12.002 21.9961C14.7184 21.9961 15.0584 21.9844 16.1255 21.9375C17.1886 21.8906 17.9195 21.7188 18.5527 21.4727C19.2093 21.2188 19.7682 20.875 20.3232 20.3203C20.8782 19.7656 21.2222 19.207 21.4763 18.5508C21.7225 17.9141 21.8945 17.1875 21.9414 16.125C21.9883 15.0586 22 14.7188 22 12.0039C22 9.28906 21.9883 8.94922 21.9414 7.88281C21.8945 6.82031 21.7225 6.08984 21.4763 5.45703C21.23 4.79297 20.89 4.23438 20.3311 3.67969C19.776 3.125 19.2171 2.78125 18.5605 2.52734C17.9234 2.28125 17.1964 2.10938 16.1333 2.0625C15.0623 2.01172 14.7223 2 12.0059 2Z" fill="#392B30"/>
<path d="M12.0059 6.86328C9.16826 6.86328 6.86613 9.16406 6.86613 12C6.86613 14.8359 9.16826 17.1367 12.0059 17.1367C14.8435 17.1367 17.1456 14.8359 17.1456 12C17.1456 9.16406 14.8435 6.86328 12.0059 6.86328ZM12.0059 15.332C10.1649 15.332 8.67188 13.8398 8.67188 12C8.67188 10.1602 10.1649 8.66797 12.0059 8.66797C13.8468 8.66797 15.3398 10.1602 15.3398 12C15.3398 13.8398 13.8468 15.332 12.0059 15.332Z" fill="#392B30"/>
<path d="M18.5488 6.66012C18.5488 7.32418 18.0094 7.85934 17.3488 7.85934C16.6844 7.85934 16.1489 7.32028 16.1489 6.66012C16.1489 5.99606 16.6883 5.4609 17.3488 5.4609C18.0094 5.4609 18.5488 5.99996 18.5488 6.66012Z" fill="#392B30"/>
</svg>
