<svg viewBox="0 0 24 24" fill="none" xmlns="http://www.w3.org/2000/svg">
<path d="M17.3592 16.1807L20.9281 19.7496L19.7496 20.9281L16.1807 17.3592C14.8974 18.3858 13.27 19 11.5 19C7.36 19 4 15.64 4 11.5C4 7.36 7.36 4 11.5 4C15.64 4 19 7.36 19 11.5C19 13.27 18.3858 14.8974 17.3592 16.1807ZM15.6873 15.5623C16.7063 14.5122 17.3333 13.0797 17.3333 11.5C17.3333 8.27708 14.7229 5.66667 11.5 5.66667C8.27708 5.66667 5.66667 8.27708 5.66667 11.5C5.66667 14.7229 8.27708 17.3333 11.5 17.3333C13.0797 17.3333 14.5122 16.7063 15.5623 15.6873L15.6873 15.5623Z" fill="#392B30"/>
</svg>
