<svg viewBox="0 0 24 24" fill="none" xmlns="http://www.w3.org/2000/svg">
<path d="M5 20.5C5 16.8181 7.98477 13.8333 11.6667 13.8333C15.3486 13.8333 18.3333 16.8181 18.3333 20.5H16.6667C16.6667 17.7386 14.4281 15.5 11.6667 15.5C8.90524 15.5 6.66667 17.7386 6.66667 20.5H5ZM11.6667 13C8.90417 13 6.66667 10.7625 6.66667 8C6.66667 5.2375 8.90417 3 11.6667 3C14.4292 3 16.6667 5.2375 16.6667 8C16.6667 10.7625 14.4292 13 11.6667 13ZM11.6667 11.3333C13.5083 11.3333 15 9.84167 15 8C15 6.15833 13.5083 4.66667 11.6667 4.66667C9.825 4.66667 8.33333 6.15833 8.33333 8C8.33333 9.84167 9.825 11.3333 11.6667 11.3333Z" fill="#392B30"/>
</svg>
